<svg xmlns="http://www.w3.org/2000/svg" width="25.69" height="18.414" viewBox="0 0 25.69 18.414">
  <g id="x-mark-1" transform="translate(0 -307)">
    <path id="Close" d="M19.323.819,12.847,5.458,6.371.816A4.733,4.733,0,0,0,2.766.086a3.353,3.353,0,0,0-2.647,1.9A2.2,2.2,0,0,0,1.142,4.57L7.615,9.211,1.147,13.848a2.163,2.163,0,0,0,.042,3.726,4.81,4.81,0,0,0,5.2.032l6.461-4.646,6.471,4.64a4.737,4.737,0,0,0,3.6.727,3.357,3.357,0,0,0,2.648-1.9,2.2,2.2,0,0,0-1.015-2.583L18.094,9.213l6.468-4.636A2.163,2.163,0,0,0,24.521.851,4.81,4.81,0,0,0,19.323.819Z" transform="translate(0 307)" fill="none"/>
    <path id="Close-2" data-name="Close" d="M13.851.819,9.209,5.458,4.567.816A2.653,2.653,0,1,0,.818,4.57l4.64,4.642L.822,13.848a2.657,2.657,0,0,0,3.756,3.758L9.209,12.96l4.638,4.64A2.655,2.655,0,1,0,17.6,13.846L12.97,9.213l4.636-4.636A2.657,2.657,0,0,0,13.851.819Z" transform="translate(4 307)" fill="#45A29E"/>
  </g>
</svg>
